<svg xmlns="http://www.w3.org/2000/svg" viewBox="0 0 200 170">

  <!-- BLADE GRIS (gauche) -->
  <path d="M 100,8
           A 150,150 0 0,0 25,138
           L 74,110
           A 52.5,52.5 0 0,1 100,65
           Z"
        fill="#BDBDBD"/>

  <!-- BLADE VERT (droit) -->
  <path d="M 100,8
           A 150,150 0 0,1 175,138
           L 126,110
           A 52.5,52.5 0 0,0 100,65
           Z"
        fill="#2E7D32"/>

  <!-- BLADE ROUGE (bas) -->
  <path d="M 25,138
           A 150,150 0 0,1 175,138
           L 126,110
           A 52.5,52.5 0 0,1 74,110
           Z"
        fill="#CC2229"/>

  <!-- SÉPARATEURS BLANCS -->
  <line x1="100" y1="8"   x2="100" y2="65"
        stroke="white" stroke-width="5" stroke-linecap="round"/>
  <line x1="25"  y1="138" x2="74"  y2="110"
        stroke="white" stroke-width="5" stroke-linecap="round"/>
  <line x1="175" y1="138" x2="126" y2="110"
        stroke="white" stroke-width="5" stroke-linecap="round"/>

  <!-- TEXTE IUC -->
  <text x="100" y="151"
        font-family="Montserrat, Arial Black, sans-serif"
        font-weight="900" font-size="19" fill="white"
        text-anchor="middle" letter-spacing="4">IUC</text>

</svg>
